<svg width="181" height="15" viewBox="0 0 181 15" fill="none" xmlns="http://www.w3.org/2000/svg">
<path d="M18.5732 2.79688L15.5654 3.64453L12.1475 12.4219L9.53613 6.95312L6.91113 12.4492L3.05566 3.34375L0.157227 2.46875L8.56543 1.8125L5.68066 3.30273L7.30762 7.67773L9.7002 2.50977L12.6533 7.89648L14.335 3.49414L10.8896 1.86719L18.5732 2.79688ZM27.2549 6.73438C27.2549 7.48177 27.0908 8.13346 26.7627 8.68945C26.4346 9.23633 26.0107 9.69661 25.4912 10.0703C24.9717 10.4349 24.3838 10.7083 23.7275 10.8906C23.0713 11.0729 22.415 11.1641 21.7588 11.1641C21.1025 11.1641 20.4554 11.0684 19.8174 10.877C19.1885 10.6855 18.6234 10.4076 18.1221 10.043C17.6299 9.66927 17.2334 9.20898 16.9326 8.66211C16.6318 8.10612 16.4814 7.46354 16.4814 6.73438C16.4814 5.93229 16.641 5.25326 16.96 4.69727C17.279 4.14128 17.7028 3.69466 18.2314 3.35742C18.7601 3.01107 19.3617 2.76042 20.0361 2.60547C20.7106 2.45052 21.3988 2.37305 22.1006 2.37305C22.7568 2.37305 23.3903 2.46875 24.001 2.66016C24.6208 2.84245 25.1722 3.11589 25.6553 3.48047C26.1383 3.84505 26.5257 4.30078 26.8174 4.84766C27.109 5.39453 27.2549 6.02344 27.2549 6.73438ZM24.6436 6.70703C24.6436 6.33333 24.5843 5.96875 24.4658 5.61328C24.3564 5.2487 24.1924 4.92969 23.9736 4.65625C23.764 4.3737 23.4997 4.15039 23.1807 3.98633C22.8708 3.81315 22.5107 3.72656 22.1006 3.72656C21.6722 3.72656 21.2712 3.79948 20.8975 3.94531C20.5329 4.09115 20.2139 4.29622 19.9404 4.56055C19.667 4.81576 19.4528 5.12565 19.2979 5.49023C19.1429 5.8457 19.0654 6.23307 19.0654 6.65234C19.0654 7.04427 19.1156 7.43164 19.2158 7.81445C19.3252 8.18815 19.4847 8.52539 19.6943 8.82617C19.9131 9.12695 20.1865 9.36849 20.5146 9.55078C20.8428 9.73307 21.2301 9.82422 21.6768 9.82422C22.1689 9.82422 22.6019 9.7513 22.9756 9.60547C23.3493 9.45052 23.6592 9.23633 23.9053 8.96289C24.1514 8.68945 24.3337 8.36133 24.4521 7.97852C24.5798 7.5957 24.6436 7.17188 24.6436 6.70703ZM42.1709 11.2051L33.8857 14.5137L35.9502 12.2305L33.0928 6.98047C32.8193 7.01693 32.5459 7.04883 32.2725 7.07617C32.0081 7.10352 31.7393 7.1263 31.4658 7.14453L31.5752 9.94727L34.7607 11.2461L26.1201 11.3691L29.0596 9.82422L28.9502 3.41211L25.71 1.93555L32.2861 2.12695C32.5322 2.13607 32.833 2.1543 33.1885 2.18164C33.5531 2.20898 33.9268 2.25456 34.3096 2.31836C34.7015 2.38216 35.0889 2.47331 35.4717 2.5918C35.8636 2.71029 36.21 2.86068 36.5107 3.04297C36.8206 3.21615 37.0713 3.43034 37.2627 3.68555C37.4541 3.93164 37.5498 4.22786 37.5498 4.57422C37.5498 4.72917 37.5133 4.875 37.4404 5.01172C37.3675 5.14844 37.2673 5.2806 37.1396 5.4082C37.0212 5.52669 36.8844 5.64062 36.7295 5.75C36.5837 5.85026 36.4287 5.94596 36.2646 6.03711C35.891 6.24674 35.4671 6.43359 34.9932 6.59766L38.124 11.1504L42.1709 11.2051ZM35.6631 4.57422C35.6631 4.41016 35.5993 4.26888 35.4717 4.15039C35.3441 4.02279 35.1755 3.91341 34.9658 3.82227C34.7653 3.73112 34.5374 3.6582 34.2822 3.60352C34.0361 3.53971 33.7946 3.49414 33.5576 3.4668C33.3206 3.43034 33.1019 3.40755 32.9014 3.39844C32.71 3.38021 32.5596 3.37109 32.4502 3.37109C32.2406 3.37109 32.0309 3.37565 31.8213 3.38477C31.6117 3.39388 31.402 3.40755 31.1924 3.42578L31.2744 5.95508C31.3838 5.96419 31.4886 5.96875 31.5889 5.96875C31.6982 5.96875 31.8122 5.96875 31.9307 5.96875C32.0492 5.96875 32.2223 5.96419 32.4502 5.95508C32.6872 5.93685 32.9424 5.90951 33.2158 5.87305C33.4984 5.82747 33.7809 5.77279 34.0635 5.70898C34.3551 5.64518 34.6195 5.56315 34.8564 5.46289C35.0934 5.35352 35.2848 5.22591 35.4307 5.08008C35.5856 4.93424 35.6631 4.76562 35.6631 4.57422ZM54.1475 12.1621L45.2197 12.1348L47.9951 10.9727L44.4404 5.91406L42.8682 6.78906L42.8271 9.75586L46.5596 11.0547L38.001 11.041L40.7764 9.76953L40.3799 2.14062L37.4131 1.04688L46.0947 0.705078L43.0459 1.99023L42.9365 5.4082L47.5986 2.63281L45.083 1.58008H52.9854L49.4717 2.89258L45.9717 5.10742L50.6885 10.8359L54.1475 12.1621ZM61.5439 6.73438C61.5439 7.48177 61.3799 8.13346 61.0518 8.68945C60.7236 9.23633 60.2998 9.69661 59.7803 10.0703C59.2607 10.4349 58.6729 10.7083 58.0166 10.8906C57.3604 11.0729 56.7041 11.1641 56.0479 11.1641C55.3916 11.1641 54.7445 11.0684 54.1064 10.877C53.4775 10.6855 52.9124 10.4076 52.4111 10.043C51.9189 9.66927 51.5225 9.20898 51.2217 8.66211C50.9209 8.10612 50.7705 7.46354 50.7705 6.73438C50.7705 5.93229 50.93 5.25326 51.249 4.69727C51.568 4.14128 51.9919 3.69466 52.5205 3.35742C53.0492 3.01107 53.6507 2.76042 54.3252 2.60547C54.9997 2.45052 55.6878 2.37305 56.3896 2.37305C57.0459 2.37305 57.6794 2.46875 58.29 2.66016C58.9098 2.84245 59.4613 3.11589 59.9443 3.48047C60.4274 3.84505 60.8148 4.30078 61.1064 4.84766C61.3981 5.39453 61.5439 6.02344 61.5439 6.73438ZM58.9326 6.70703C58.9326 6.33333 58.8734 5.96875 58.7549 5.61328C58.6455 5.2487 58.4814 4.92969 58.2627 4.65625C58.0531 4.3737 57.7887 4.15039 57.4697 3.98633C57.1598 3.81315 56.7998 3.72656 56.3896 3.72656C55.9613 3.72656 55.5602 3.79948 55.1865 3.94531C54.8219 4.09115 54.5029 4.29622 54.2295 4.56055C53.9561 4.81576 53.7419 5.12565 53.5869 5.49023C53.432 5.8457 53.3545 6.23307 53.3545 6.65234C53.3545 7.04427 53.4046 7.43164 53.5049 7.81445C53.6143 8.18815 53.7738 8.52539 53.9834 8.82617C54.2021 9.12695 54.4756 9.36849 54.8037 9.55078C55.1318 9.73307 55.5192 9.82422 55.9658 9.82422C56.458 9.82422 56.891 9.7513 57.2646 9.60547C57.6383 9.45052 57.9482 9.23633 58.1943 8.96289C58.4404 8.68945 58.6227 8.36133 58.7412 7.97852C58.8688 7.5957 58.9326 7.17188 58.9326 6.70703ZM72.96 1.88086L71.0732 2.94727L70.8818 7.63672C70.8545 8.29297 70.736 8.85807 70.5264 9.33203C70.3258 9.80599 70.0387 10.1934 69.665 10.4941C69.3005 10.7949 68.8584 11.0137 68.3389 11.1504C67.8285 11.2962 67.2542 11.3691 66.6162 11.3691C66.0511 11.3691 65.527 11.2826 65.0439 11.1094C64.57 10.9362 64.1598 10.6855 63.8135 10.3574C63.4762 10.0293 63.2119 9.63281 63.0205 9.16797C62.8291 8.70312 62.7334 8.17904 62.7334 7.5957C62.7334 6.85742 62.7471 6.11458 62.7744 5.36719C62.8109 4.61068 62.8428 3.85872 62.8701 3.11133L60.4229 1.99023L67.2861 2.46875L65.3994 3.26172C65.3812 3.97266 65.363 4.68815 65.3447 5.4082C65.3356 6.11914 65.3311 6.83008 65.3311 7.54102C65.3311 7.8418 65.3721 8.14258 65.4541 8.44336C65.5361 8.73503 65.6592 8.99935 65.8232 9.23633C65.9964 9.46419 66.2106 9.65104 66.4658 9.79688C66.721 9.94271 67.0218 10.0156 67.3682 10.0156C67.7327 10.0156 68.0609 9.95638 68.3525 9.83789C68.6533 9.71029 68.904 9.53711 69.1045 9.31836C69.305 9.09961 69.4554 8.83984 69.5557 8.53906C69.665 8.22917 69.7152 7.89648 69.7061 7.54102C69.7061 7.52279 69.7061 7.52279 69.7061 7.54102C69.7061 7.55013 69.7061 7.53646 69.7061 7.5C69.7061 7.45443 69.7015 7.35872 69.6924 7.21289C69.6833 7.06706 69.6696 6.82552 69.6514 6.48828C69.6423 6.15104 69.624 5.69531 69.5967 5.12109C69.5785 4.54688 69.5511 3.81315 69.5146 2.91992L67.3682 1.78516L72.96 1.88086ZM81.8467 1.73047L81.2725 6.54297L80.1104 2.90625L78.292 2.87891L78.0732 9.76953L81.1631 11.2598L72.9463 11.1777L75.9404 9.70117L75.749 2.85156L74.0537 2.83789L72.8096 6.51562L72.3994 1.59375L81.8467 1.73047ZM98.5674 6.1875C98.5674 7.01693 98.4489 7.74154 98.2119 8.36133C97.9749 8.97201 97.6331 9.48242 97.1865 9.89258C96.7399 10.3027 96.193 10.6126 95.5459 10.8223C94.9079 11.0228 94.1833 11.123 93.3721 11.123C92.8252 11.123 92.2829 11.1413 91.7451 11.1777C91.2165 11.2142 90.6833 11.2461 90.1455 11.2734L86.6455 11.4648L89.6396 9.86523V9.7832C89.6396 8.68034 89.585 7.59115 89.4756 6.51562C89.3662 5.4401 89.2751 4.36003 89.2021 3.27539L85.3467 1.59375C86.0667 1.61198 86.7822 1.63021 87.4932 1.64844C88.2041 1.66667 88.9196 1.67578 89.6396 1.67578C90.2139 1.67578 90.779 1.67122 91.335 1.66211C91.9001 1.65299 92.4652 1.64844 93.0303 1.64844C93.723 1.64844 94.402 1.74414 95.0674 1.93555C95.7327 2.11784 96.3252 2.39583 96.8447 2.76953C97.3643 3.14323 97.779 3.61719 98.0889 4.19141C98.4079 4.75651 98.5674 5.42188 98.5674 6.1875ZM96.1748 6.37891C96.1748 5.88672 96.1201 5.43555 96.0107 5.02539C95.9014 4.60612 95.7282 4.25065 95.4912 3.95898C95.2542 3.6582 94.9489 3.42578 94.5752 3.26172C94.2015 3.08854 93.7503 3.00195 93.2217 3.00195C93.012 3.00195 92.8024 3.00651 92.5928 3.01562C92.3923 3.01562 92.1872 3.01107 91.9775 3.00195L91.6221 9.87891C91.8317 9.87891 92.0322 9.88346 92.2236 9.89258C92.415 9.89258 92.611 9.89258 92.8115 9.89258V9.86523C92.9391 9.87435 93.0576 9.88346 93.167 9.89258C93.2764 9.89258 93.3903 9.89258 93.5088 9.89258C94.0465 9.89258 94.4886 9.79688 94.835 9.60547C95.1813 9.40495 95.4502 9.14518 95.6416 8.82617C95.8421 8.49805 95.9788 8.12435 96.0518 7.70508C96.1338 7.27669 96.1748 6.83464 96.1748 6.37891ZM105.376 1.44336L102.437 2.64648L102.204 11.0273L105.253 12.2168H97.2139L100.222 11.0273L99.8936 2.72852L96.6123 1.34766L105.376 1.44336ZM119.444 11.2051L111.159 14.5137L113.224 12.2305L110.366 6.98047C110.093 7.01693 109.819 7.04883 109.546 7.07617C109.282 7.10352 109.013 7.1263 108.739 7.14453L108.849 9.94727L112.034 11.2461L103.394 11.3691L106.333 9.82422L106.224 3.41211L102.983 1.93555L109.56 2.12695C109.806 2.13607 110.106 2.1543 110.462 2.18164C110.826 2.20898 111.2 2.25456 111.583 2.31836C111.975 2.38216 112.362 2.47331 112.745 2.5918C113.137 2.71029 113.483 2.86068 113.784 3.04297C114.094 3.21615 114.345 3.43034 114.536 3.68555C114.728 3.93164 114.823 4.22786 114.823 4.57422C114.823 4.72917 114.787 4.875 114.714 5.01172C114.641 5.14844 114.541 5.2806 114.413 5.4082C114.295 5.52669 114.158 5.64062 114.003 5.75C113.857 5.85026 113.702 5.94596 113.538 6.03711C113.164 6.24674 112.741 6.43359 112.267 6.59766L115.397 11.1504L119.444 11.2051ZM112.937 4.57422C112.937 4.41016 112.873 4.26888 112.745 4.15039C112.618 4.02279 112.449 3.91341 112.239 3.82227C112.039 3.73112 111.811 3.6582 111.556 3.60352C111.31 3.53971 111.068 3.49414 110.831 3.4668C110.594 3.43034 110.375 3.40755 110.175 3.39844C109.983 3.38021 109.833 3.37109 109.724 3.37109C109.514 3.37109 109.304 3.37565 109.095 3.38477C108.885 3.39388 108.675 3.40755 108.466 3.42578L108.548 5.95508C108.657 5.96419 108.762 5.96875 108.862 5.96875C108.972 5.96875 109.086 5.96875 109.204 5.96875C109.323 5.96875 109.496 5.96419 109.724 5.95508C109.961 5.93685 110.216 5.90951 110.489 5.87305C110.772 5.82747 111.054 5.77279 111.337 5.70898C111.629 5.64518 111.893 5.56315 112.13 5.46289C112.367 5.35352 112.558 5.22591 112.704 5.08008C112.859 4.93424 112.937 4.76562 112.937 4.57422ZM125.774 0.882812L125.556 5.75L123.915 2.18164L120.073 2.49609L119.991 6.13281L121.263 6.06445L122.753 3.23438L122.603 9.71484L121.181 7.58203L119.964 7.5L119.896 10.1387L123.997 10.1113L125.351 6.11914L125.392 11.2461L114.509 11.3281C115.056 11.1094 115.598 10.8861 116.136 10.6582C116.674 10.4212 117.216 10.207 117.763 10.0156L117.517 2.86523C116.942 2.69206 116.377 2.50977 115.821 2.31836C115.265 2.12695 114.705 1.93555 114.14 1.74414L125.351 0.910156L125.774 0.882812ZM136.521 0.445312L135.591 6.14648C135.472 5.75456 135.313 5.36263 135.112 4.9707C134.921 4.57878 134.684 4.23242 134.401 3.93164C134.119 3.62174 133.791 3.37109 133.417 3.17969C133.052 2.98828 132.642 2.89258 132.187 2.89258C131.667 2.89258 131.198 2.98828 130.778 3.17969C130.359 3.36198 129.999 3.61719 129.698 3.94531C129.407 4.26432 129.183 4.64258 129.028 5.08008C128.873 5.51758 128.796 5.98698 128.796 6.48828C128.796 7.03516 128.869 7.54557 129.015 8.01953C129.17 8.48438 129.397 8.89453 129.698 9.25C129.999 9.59635 130.368 9.86979 130.806 10.0703C131.243 10.2617 131.749 10.3574 132.323 10.3574C133.235 10.3574 133.95 10.1068 134.47 9.60547C134.998 9.10417 135.326 8.41146 135.454 7.52734L136.384 12.1074L135.276 10.5215C135.067 10.7585 134.825 10.9544 134.552 11.1094C134.278 11.2734 133.987 11.4056 133.677 11.5059C133.367 11.6061 133.048 11.679 132.72 11.7246C132.401 11.7702 132.091 11.793 131.79 11.793C130.997 11.793 130.259 11.6654 129.575 11.4102C128.901 11.1549 128.308 10.7904 127.798 10.3164C127.297 9.84245 126.9 9.27734 126.608 8.62109C126.326 7.95573 126.185 7.21745 126.185 6.40625C126.185 5.60417 126.33 4.89323 126.622 4.27344C126.923 3.64453 127.328 3.11589 127.839 2.6875C128.349 2.25911 128.942 1.93555 129.616 1.7168C130.3 1.49805 131.02 1.38867 131.776 1.38867C132.041 1.38867 132.314 1.41602 132.597 1.4707C132.888 1.51628 133.175 1.58919 133.458 1.68945C133.741 1.78971 134.005 1.91732 134.251 2.07227C134.497 2.2181 134.711 2.39128 134.894 2.5918L136.521 0.445312ZM146.515 1.73047L145.94 6.54297L144.778 2.90625L142.96 2.87891L142.741 9.76953L145.831 11.2598L137.614 11.1777L140.608 9.70117L140.417 2.85156L138.722 2.83789L137.478 6.51562L137.067 1.59375L146.515 1.73047ZM157.425 6.73438C157.425 7.48177 157.261 8.13346 156.933 8.68945C156.604 9.23633 156.181 9.69661 155.661 10.0703C155.142 10.4349 154.554 10.7083 153.897 10.8906C153.241 11.0729 152.585 11.1641 151.929 11.1641C151.272 11.1641 150.625 11.0684 149.987 10.877C149.358 10.6855 148.793 10.4076 148.292 10.043C147.8 9.66927 147.403 9.20898 147.103 8.66211C146.802 8.10612 146.651 7.46354 146.651 6.73438C146.651 5.93229 146.811 5.25326 147.13 4.69727C147.449 4.14128 147.873 3.69466 148.401 3.35742C148.93 3.01107 149.532 2.76042 150.206 2.60547C150.881 2.45052 151.569 2.37305 152.271 2.37305C152.927 2.37305 153.56 2.46875 154.171 2.66016C154.791 2.84245 155.342 3.11589 155.825 3.48047C156.308 3.84505 156.696 4.30078 156.987 4.84766C157.279 5.39453 157.425 6.02344 157.425 6.73438ZM154.813 6.70703C154.813 6.33333 154.754 5.96875 154.636 5.61328C154.526 5.2487 154.362 4.92969 154.144 4.65625C153.934 4.3737 153.67 4.15039 153.351 3.98633C153.041 3.81315 152.681 3.72656 152.271 3.72656C151.842 3.72656 151.441 3.79948 151.067 3.94531C150.703 4.09115 150.384 4.29622 150.11 4.56055C149.837 4.81576 149.623 5.12565 149.468 5.49023C149.313 5.8457 149.235 6.23307 149.235 6.65234C149.235 7.04427 149.285 7.43164 149.386 7.81445C149.495 8.18815 149.655 8.52539 149.864 8.82617C150.083 9.12695 150.356 9.36849 150.685 9.55078C151.013 9.73307 151.4 9.82422 151.847 9.82422C152.339 9.82422 152.772 9.7513 153.146 9.60547C153.519 9.45052 153.829 9.23633 154.075 8.96289C154.321 8.68945 154.504 8.36133 154.622 7.97852C154.75 7.5957 154.813 7.17188 154.813 6.70703ZM172.341 11.2051L164.056 14.5137L166.12 12.2305L163.263 6.98047C162.989 7.01693 162.716 7.04883 162.442 7.07617C162.178 7.10352 161.909 7.1263 161.636 7.14453L161.745 9.94727L164.931 11.2461L156.29 11.3691L159.229 9.82422L159.12 3.41211L155.88 1.93555L162.456 2.12695C162.702 2.13607 163.003 2.1543 163.358 2.18164C163.723 2.20898 164.097 2.25456 164.479 2.31836C164.871 2.38216 165.259 2.47331 165.642 2.5918C166.034 2.71029 166.38 2.86068 166.681 3.04297C166.991 3.21615 167.241 3.43034 167.433 3.68555C167.624 3.93164 167.72 4.22786 167.72 4.57422C167.72 4.72917 167.683 4.875 167.61 5.01172C167.537 5.14844 167.437 5.2806 167.31 5.4082C167.191 5.52669 167.054 5.64062 166.899 5.75C166.754 5.85026 166.599 5.94596 166.435 6.03711C166.061 6.24674 165.637 6.43359 165.163 6.59766L168.294 11.1504L172.341 11.2051ZM165.833 4.57422C165.833 4.41016 165.769 4.26888 165.642 4.15039C165.514 4.02279 165.345 3.91341 165.136 3.82227C164.935 3.73112 164.707 3.6582 164.452 3.60352C164.206 3.53971 163.965 3.49414 163.728 3.4668C163.491 3.43034 163.272 3.40755 163.071 3.39844C162.88 3.38021 162.729 3.37109 162.62 3.37109C162.41 3.37109 162.201 3.37565 161.991 3.38477C161.782 3.39388 161.572 3.40755 161.362 3.42578L161.444 5.95508C161.554 5.96419 161.659 5.96875 161.759 5.96875C161.868 5.96875 161.982 5.96875 162.101 5.96875C162.219 5.96875 162.392 5.96419 162.62 5.95508C162.857 5.93685 163.112 5.90951 163.386 5.87305C163.668 5.82747 163.951 5.77279 164.233 5.70898C164.525 5.64518 164.789 5.56315 165.026 5.46289C165.263 5.35352 165.455 5.22591 165.601 5.08008C165.756 4.93424 165.833 4.76562 165.833 4.57422ZM180.872 3.00195L177.837 4.27344L175.103 7.28125L175.431 10.6992L178.958 11.916L170.345 11.9707L173.052 10.7949L173.188 7.44531L169.743 3.52148L166.188 2.22266L173.804 1.85352L172.026 2.96094L174.679 6.14648L176.812 4.01367L174.747 2.76953L180.872 3.00195Z" fill="white"/>
</svg>
