<svg width="182" height="18" viewBox="0 0 182 18" fill="none" xmlns="http://www.w3.org/2000/svg">
<path d="M19.5732 5.79688L16.5654 6.64453L13.1475 15.4219L10.5361 9.95312L7.91113 15.4492L4.05566 6.34375L1.15723 5.46875L9.56543 4.8125L6.68066 6.30273L8.30762 10.6777L10.7002 5.50977L13.6533 10.8965L15.335 6.49414L11.8896 4.86719L19.5732 5.79688Z" fill="#80DEEA"/>
<path d="M28.2549 9.73438C28.2549 10.4818 28.0908 11.1335 27.7627 11.6895C27.4346 12.2363 27.0107 12.6966 26.4912 13.0703C25.9717 13.4349 25.3838 13.7083 24.7275 13.8906C24.0713 14.0729 23.415 14.1641 22.7588 14.1641C22.1025 14.1641 21.4554 14.0684 20.8174 13.877C20.1885 13.6855 19.6234 13.4076 19.1221 13.043C18.6299 12.6693 18.2334 12.209 17.9326 11.6621C17.6318 11.1061 17.4814 10.4635 17.4814 9.73438C17.4814 8.93229 17.641 8.25326 17.96 7.69727C18.279 7.14128 18.7028 6.69466 19.2314 6.35742C19.7601 6.01107 20.3617 5.76042 21.0361 5.60547C21.7106 5.45052 22.3988 5.37305 23.1006 5.37305C23.7568 5.37305 24.3903 5.46875 25.001 5.66016C25.6208 5.84245 26.1722 6.11589 26.6553 6.48047C27.1383 6.84505 27.5257 7.30078 27.8174 7.84766C28.109 8.39453 28.2549 9.02344 28.2549 9.73438ZM25.6436 9.70703C25.6436 9.33333 25.5843 8.96875 25.4658 8.61328C25.3564 8.2487 25.1924 7.92969 24.9736 7.65625C24.764 7.3737 24.4997 7.15039 24.1807 6.98633C23.8708 6.81315 23.5107 6.72656 23.1006 6.72656C22.6722 6.72656 22.2712 6.79948 21.8975 6.94531C21.5329 7.09115 21.2139 7.29622 20.9404 7.56055C20.667 7.81576 20.4528 8.12565 20.2979 8.49023C20.1429 8.8457 20.0654 9.23307 20.0654 9.65234C20.0654 10.0443 20.1156 10.4316 20.2158 10.8145C20.3252 11.1882 20.4847 11.5254 20.6943 11.8262C20.9131 12.127 21.1865 12.3685 21.5146 12.5508C21.8428 12.7331 22.2301 12.8242 22.6768 12.8242C23.1689 12.8242 23.6019 12.7513 23.9756 12.6055C24.3493 12.4505 24.6592 12.2363 24.9053 11.9629C25.1514 11.6895 25.3337 11.3613 25.4521 10.9785C25.5798 10.5957 25.6436 10.1719 25.6436 9.70703Z" fill="#80DEEA"/>
<path d="M43.1709 14.2051L34.8857 17.5137L36.9502 15.2305L34.0928 9.98047C33.8193 10.0169 33.5459 10.0488 33.2725 10.0762C33.0081 10.1035 32.7393 10.1263 32.4658 10.1445L32.5752 12.9473L35.7607 14.2461L27.1201 14.3691L30.0596 12.8242L29.9502 6.41211L26.71 4.93555L33.2861 5.12695C33.5322 5.13607 33.833 5.1543 34.1885 5.18164C34.5531 5.20898 34.9268 5.25456 35.3096 5.31836C35.7015 5.38216 36.0889 5.47331 36.4717 5.5918C36.8636 5.71029 37.21 5.86068 37.5107 6.04297C37.8206 6.21615 38.0713 6.43034 38.2627 6.68555C38.4541 6.93164 38.5498 7.22786 38.5498 7.57422C38.5498 7.72917 38.5133 7.875 38.4404 8.01172C38.3675 8.14844 38.2673 8.2806 38.1396 8.4082C38.0212 8.52669 37.8844 8.64062 37.7295 8.75C37.5837 8.85026 37.4287 8.94596 37.2646 9.03711C36.891 9.24674 36.4671 9.43359 35.9932 9.59766L39.124 14.1504L43.1709 14.2051ZM36.6631 7.57422C36.6631 7.41016 36.5993 7.26888 36.4717 7.15039C36.3441 7.02279 36.1755 6.91341 35.9658 6.82227C35.7653 6.73112 35.5374 6.6582 35.2822 6.60352C35.0361 6.53971 34.7946 6.49414 34.5576 6.4668C34.3206 6.43034 34.1019 6.40755 33.9014 6.39844C33.71 6.38021 33.5596 6.37109 33.4502 6.37109C33.2406 6.37109 33.0309 6.37565 32.8213 6.38477C32.6117 6.39388 32.402 6.40755 32.1924 6.42578L32.2744 8.95508C32.3838 8.96419 32.4886 8.96875 32.5889 8.96875C32.6982 8.96875 32.8122 8.96875 32.9307 8.96875C33.0492 8.96875 33.2223 8.96419 33.4502 8.95508C33.6872 8.93685 33.9424 8.90951 34.2158 8.87305C34.4984 8.82747 34.7809 8.77279 35.0635 8.70898C35.3551 8.64518 35.6195 8.56315 35.8564 8.46289C36.0934 8.35352 36.2848 8.22591 36.4307 8.08008C36.5856 7.93424 36.6631 7.76562 36.6631 7.57422Z" fill="#80DEEA"/>
<path d="M55.1475 15.1621L46.2197 15.1348L48.9951 13.9727L45.4404 8.91406L43.8682 9.78906L43.8271 12.7559L47.5596 14.0547L39.001 14.041L41.7764 12.7695L41.3799 5.14062L38.4131 4.04688L47.0947 3.70508L44.0459 4.99023L43.9365 8.4082L48.5986 5.63281L46.083 4.58008H53.9854L50.4717 5.89258L46.9717 8.10742L51.6885 13.8359L55.1475 15.1621Z" fill="#80DEEA"/>
<path d="M62.5439 9.73438C62.5439 10.4818 62.3799 11.1335 62.0518 11.6895C61.7236 12.2363 61.2998 12.6966 60.7803 13.0703C60.2607 13.4349 59.6729 13.7083 59.0166 13.8906C58.3604 14.0729 57.7041 14.1641 57.0479 14.1641C56.3916 14.1641 55.7445 14.0684 55.1064 13.877C54.4775 13.6855 53.9124 13.4076 53.4111 13.043C52.9189 12.6693 52.5225 12.209 52.2217 11.6621C51.9209 11.1061 51.7705 10.4635 51.7705 9.73438C51.7705 8.93229 51.93 8.25326 52.249 7.69727C52.568 7.14128 52.9919 6.69466 53.5205 6.35742C54.0492 6.01107 54.6507 5.76042 55.3252 5.60547C55.9997 5.45052 56.6878 5.37305 57.3896 5.37305C58.0459 5.37305 58.6794 5.46875 59.29 5.66016C59.9098 5.84245 60.4613 6.11589 60.9443 6.48047C61.4274 6.84505 61.8148 7.30078 62.1064 7.84766C62.3981 8.39453 62.5439 9.02344 62.5439 9.73438ZM59.9326 9.70703C59.9326 9.33333 59.8734 8.96875 59.7549 8.61328C59.6455 8.2487 59.4814 7.92969 59.2627 7.65625C59.0531 7.3737 58.7887 7.15039 58.4697 6.98633C58.1598 6.81315 57.7998 6.72656 57.3896 6.72656C56.9613 6.72656 56.5602 6.79948 56.1865 6.94531C55.8219 7.09115 55.5029 7.29622 55.2295 7.56055C54.9561 7.81576 54.7419 8.12565 54.5869 8.49023C54.432 8.8457 54.3545 9.23307 54.3545 9.65234C54.3545 10.0443 54.4046 10.4316 54.5049 10.8145C54.6143 11.1882 54.7738 11.5254 54.9834 11.8262C55.2021 12.127 55.4756 12.3685 55.8037 12.5508C56.1318 12.7331 56.5192 12.8242 56.9658 12.8242C57.458 12.8242 57.891 12.7513 58.2646 12.6055C58.6383 12.4505 58.9482 12.2363 59.1943 11.9629C59.4404 11.6895 59.6227 11.3613 59.7412 10.9785C59.8688 10.5957 59.9326 10.1719 59.9326 9.70703Z" fill="#80DEEA"/>
<path d="M73.96 4.88086L72.0732 5.94727L71.8818 10.6367C71.8545 11.293 71.736 11.8581 71.5264 12.332C71.3258 12.806 71.0387 13.1934 70.665 13.4941C70.3005 13.7949 69.8584 14.0137 69.3389 14.1504C68.8285 14.2962 68.2542 14.3691 67.6162 14.3691C67.0511 14.3691 66.527 14.2826 66.0439 14.1094C65.57 13.9362 65.1598 13.6855 64.8135 13.3574C64.4762 13.0293 64.2119 12.6328 64.0205 12.168C63.8291 11.7031 63.7334 11.179 63.7334 10.5957C63.7334 9.85742 63.7471 9.11458 63.7744 8.36719C63.8109 7.61068 63.8428 6.85872 63.8701 6.11133L61.4229 4.99023L68.2861 5.46875L66.3994 6.26172C66.3812 6.97266 66.363 7.68815 66.3447 8.4082C66.3356 9.11914 66.3311 9.83008 66.3311 10.541C66.3311 10.8418 66.3721 11.1426 66.4541 11.4434C66.5361 11.735 66.6592 11.9993 66.8232 12.2363C66.9964 12.4642 67.2106 12.651 67.4658 12.7969C67.721 12.9427 68.0218 13.0156 68.3682 13.0156C68.7327 13.0156 69.0609 12.9564 69.3525 12.8379C69.6533 12.7103 69.904 12.5371 70.1045 12.3184C70.305 12.0996 70.4554 11.8398 70.5557 11.5391C70.665 11.2292 70.7152 10.8965 70.7061 10.541C70.7061 10.5228 70.7061 10.5228 70.7061 10.541C70.7061 10.5501 70.7061 10.5365 70.7061 10.5C70.7061 10.4544 70.7015 10.3587 70.6924 10.2129C70.6833 10.0671 70.6696 9.82552 70.6514 9.48828C70.6423 9.15104 70.624 8.69531 70.5967 8.12109C70.5785 7.54688 70.5511 6.81315 70.5146 5.91992L68.3682 4.78516L73.96 4.88086Z" fill="#80DEEA"/>
<path d="M82.8467 4.73047L82.2725 9.54297L81.1104 5.90625L79.292 5.87891L79.0732 12.7695L82.1631 14.2598L73.9463 14.1777L76.9404 12.7012L76.749 5.85156L75.0537 5.83789L73.8096 9.51562L73.3994 4.59375L82.8467 4.73047Z" fill="#80DEEA"/>
<path d="M99.5674 9.1875C99.5674 10.0169 99.4489 10.7415 99.2119 11.3613C98.9749 11.972 98.6331 12.4824 98.1865 12.8926C97.7399 13.3027 97.193 13.6126 96.5459 13.8223C95.9079 14.0228 95.1833 14.123 94.3721 14.123C93.8252 14.123 93.2829 14.1413 92.7451 14.1777C92.2165 14.2142 91.6833 14.2461 91.1455 14.2734L87.6455 14.4648L90.6396 12.8652V12.7832C90.6396 11.6803 90.585 10.5911 90.4756 9.51562C90.3662 8.4401 90.2751 7.36003 90.2021 6.27539L86.3467 4.59375C87.0667 4.61198 87.7822 4.63021 88.4932 4.64844C89.2041 4.66667 89.9196 4.67578 90.6396 4.67578C91.2139 4.67578 91.779 4.67122 92.335 4.66211C92.9001 4.65299 93.4652 4.64844 94.0303 4.64844C94.723 4.64844 95.402 4.74414 96.0674 4.93555C96.7327 5.11784 97.3252 5.39583 97.8447 5.76953C98.3643 6.14323 98.779 6.61719 99.0889 7.19141C99.4079 7.75651 99.5674 8.42188 99.5674 9.1875ZM97.1748 9.37891C97.1748 8.88672 97.1201 8.43555 97.0107 8.02539C96.9014 7.60612 96.7282 7.25065 96.4912 6.95898C96.2542 6.6582 95.9489 6.42578 95.5752 6.26172C95.2015 6.08854 94.7503 6.00195 94.2217 6.00195C94.012 6.00195 93.8024 6.00651 93.5928 6.01562C93.3923 6.01562 93.1872 6.01107 92.9775 6.00195L92.6221 12.8789C92.8317 12.8789 93.0322 12.8835 93.2236 12.8926C93.415 12.8926 93.611 12.8926 93.8115 12.8926V12.8652C93.9391 12.8743 94.0576 12.8835 94.167 12.8926C94.2764 12.8926 94.3903 12.8926 94.5088 12.8926C95.0465 12.8926 95.4886 12.7969 95.835 12.6055C96.1813 12.4049 96.4502 12.1452 96.6416 11.8262C96.8421 11.498 96.9788 11.1243 97.0518 10.7051C97.1338 10.2767 97.1748 9.83464 97.1748 9.37891Z" fill="#80DEEA"/>
<path d="M106.376 4.44336L103.437 5.64648L103.204 14.0273L106.253 15.2168H98.2139L101.222 14.0273L100.894 5.72852L97.6123 4.34766L106.376 4.44336Z" fill="#80DEEA"/>
<path d="M120.444 14.2051L112.159 17.5137L114.224 15.2305L111.366 9.98047C111.093 10.0169 110.819 10.0488 110.546 10.0762C110.282 10.1035 110.013 10.1263 109.739 10.1445L109.849 12.9473L113.034 14.2461L104.394 14.3691L107.333 12.8242L107.224 6.41211L103.983 4.93555L110.56 5.12695C110.806 5.13607 111.106 5.1543 111.462 5.18164C111.826 5.20898 112.2 5.25456 112.583 5.31836C112.975 5.38216 113.362 5.47331 113.745 5.5918C114.137 5.71029 114.483 5.86068 114.784 6.04297C115.094 6.21615 115.345 6.43034 115.536 6.68555C115.728 6.93164 115.823 7.22786 115.823 7.57422C115.823 7.72917 115.787 7.875 115.714 8.01172C115.641 8.14844 115.541 8.2806 115.413 8.4082C115.295 8.52669 115.158 8.64062 115.003 8.75C114.857 8.85026 114.702 8.94596 114.538 9.03711C114.164 9.24674 113.741 9.43359 113.267 9.59766L116.397 14.1504L120.444 14.2051ZM113.937 7.57422C113.937 7.41016 113.873 7.26888 113.745 7.15039C113.618 7.02279 113.449 6.91341 113.239 6.82227C113.039 6.73112 112.811 6.6582 112.556 6.60352C112.31 6.53971 112.068 6.49414 111.831 6.4668C111.594 6.43034 111.375 6.40755 111.175 6.39844C110.983 6.38021 110.833 6.37109 110.724 6.37109C110.514 6.37109 110.304 6.37565 110.095 6.38477C109.885 6.39388 109.675 6.40755 109.466 6.42578L109.548 8.95508C109.657 8.96419 109.762 8.96875 109.862 8.96875C109.972 8.96875 110.086 8.96875 110.204 8.96875C110.323 8.96875 110.496 8.96419 110.724 8.95508C110.961 8.93685 111.216 8.90951 111.489 8.87305C111.772 8.82747 112.054 8.77279 112.337 8.70898C112.629 8.64518 112.893 8.56315 113.13 8.46289C113.367 8.35352 113.558 8.22591 113.704 8.08008C113.859 7.93424 113.937 7.76562 113.937 7.57422Z" fill="#80DEEA"/>
<path d="M126.774 3.88281L126.556 8.75L124.915 5.18164L121.073 5.49609L120.991 9.13281L122.263 9.06445L123.753 6.23438L123.603 12.7148L122.181 10.582L120.964 10.5L120.896 13.1387L124.997 13.1113L126.351 9.11914L126.392 14.2461L115.509 14.3281C116.056 14.1094 116.598 13.8861 117.136 13.6582C117.674 13.4212 118.216 13.207 118.763 13.0156L118.517 5.86523C117.942 5.69206 117.377 5.50977 116.821 5.31836C116.265 5.12695 115.705 4.93555 115.14 4.74414L126.351 3.91016L126.774 3.88281Z" fill="#80DEEA"/>
<path d="M137.521 3.44531L136.591 9.14648C136.472 8.75456 136.313 8.36263 136.112 7.9707C135.921 7.57878 135.684 7.23242 135.401 6.93164C135.119 6.62174 134.791 6.37109 134.417 6.17969C134.052 5.98828 133.642 5.89258 133.187 5.89258C132.667 5.89258 132.198 5.98828 131.778 6.17969C131.359 6.36198 130.999 6.61719 130.698 6.94531C130.407 7.26432 130.183 7.64258 130.028 8.08008C129.873 8.51758 129.796 8.98698 129.796 9.48828C129.796 10.0352 129.869 10.5456 130.015 11.0195C130.17 11.4844 130.397 11.8945 130.698 12.25C130.999 12.5964 131.368 12.8698 131.806 13.0703C132.243 13.2617 132.749 13.3574 133.323 13.3574C134.235 13.3574 134.95 13.1068 135.47 12.6055C135.998 12.1042 136.326 11.4115 136.454 10.5273L137.384 15.1074L136.276 13.5215C136.067 13.7585 135.825 13.9544 135.552 14.1094C135.278 14.2734 134.987 14.4056 134.677 14.5059C134.367 14.6061 134.048 14.679 133.72 14.7246C133.401 14.7702 133.091 14.793 132.79 14.793C131.997 14.793 131.259 14.6654 130.575 14.4102C129.901 14.1549 129.308 13.7904 128.798 13.3164C128.297 12.8424 127.9 12.2773 127.608 11.6211C127.326 10.9557 127.185 10.2174 127.185 9.40625C127.185 8.60417 127.33 7.89323 127.622 7.27344C127.923 6.64453 128.328 6.11589 128.839 5.6875C129.349 5.25911 129.942 4.93555 130.616 4.7168C131.3 4.49805 132.02 4.38867 132.776 4.38867C133.041 4.38867 133.314 4.41602 133.597 4.4707C133.888 4.51628 134.175 4.58919 134.458 4.68945C134.741 4.78971 135.005 4.91732 135.251 5.07227C135.497 5.2181 135.711 5.39128 135.894 5.5918L137.521 3.44531Z" fill="#80DEEA"/>
<path d="M147.515 4.73047L146.94 9.54297L145.778 5.90625L143.96 5.87891L143.741 12.7695L146.831 14.2598L138.614 14.1777L141.608 12.7012L141.417 5.85156L139.722 5.83789L138.478 9.51562L138.067 4.59375L147.515 4.73047Z" fill="#80DEEA"/>
<path d="M158.425 9.73438C158.425 10.4818 158.261 11.1335 157.933 11.6895C157.604 12.2363 157.181 12.6966 156.661 13.0703C156.142 13.4349 155.554 13.7083 154.897 13.8906C154.241 14.0729 153.585 14.1641 152.929 14.1641C152.272 14.1641 151.625 14.0684 150.987 13.877C150.358 13.6855 149.793 13.4076 149.292 13.043C148.8 12.6693 148.403 12.209 148.103 11.6621C147.802 11.1061 147.651 10.4635 147.651 9.73438C147.651 8.93229 147.811 8.25326 148.13 7.69727C148.449 7.14128 148.873 6.69466 149.401 6.35742C149.93 6.01107 150.532 5.76042 151.206 5.60547C151.881 5.45052 152.569 5.37305 153.271 5.37305C153.927 5.37305 154.56 5.46875 155.171 5.66016C155.791 5.84245 156.342 6.11589 156.825 6.48047C157.308 6.84505 157.696 7.30078 157.987 7.84766C158.279 8.39453 158.425 9.02344 158.425 9.73438ZM155.813 9.70703C155.813 9.33333 155.754 8.96875 155.636 8.61328C155.526 8.2487 155.362 7.92969 155.144 7.65625C154.934 7.3737 154.67 7.15039 154.351 6.98633C154.041 6.81315 153.681 6.72656 153.271 6.72656C152.842 6.72656 152.441 6.79948 152.067 6.94531C151.703 7.09115 151.384 7.29622 151.11 7.56055C150.837 7.81576 150.623 8.12565 150.468 8.49023C150.313 8.8457 150.235 9.23307 150.235 9.65234C150.235 10.0443 150.285 10.4316 150.386 10.8145C150.495 11.1882 150.655 11.5254 150.864 11.8262C151.083 12.127 151.356 12.3685 151.685 12.5508C152.013 12.7331 152.4 12.8242 152.847 12.8242C153.339 12.8242 153.772 12.7513 154.146 12.6055C154.519 12.4505 154.829 12.2363 155.075 11.9629C155.321 11.6895 155.504 11.3613 155.622 10.9785C155.75 10.5957 155.813 10.1719 155.813 9.70703Z" fill="#80DEEA"/>
<path d="M173.341 14.2051L165.056 17.5137L167.12 15.2305L164.263 9.98047C163.989 10.0169 163.716 10.0488 163.442 10.0762C163.178 10.1035 162.909 10.1263 162.636 10.1445L162.745 12.9473L165.931 14.2461L157.29 14.3691L160.229 12.8242L160.12 6.41211L156.88 4.93555L163.456 5.12695C163.702 5.13607 164.003 5.1543 164.358 5.18164C164.723 5.20898 165.097 5.25456 165.479 5.31836C165.871 5.38216 166.259 5.47331 166.642 5.5918C167.034 5.71029 167.38 5.86068 167.681 6.04297C167.991 6.21615 168.241 6.43034 168.433 6.68555C168.624 6.93164 168.72 7.22786 168.72 7.57422C168.72 7.72917 168.683 7.875 168.61 8.01172C168.537 8.14844 168.437 8.2806 168.31 8.4082C168.191 8.52669 168.054 8.64062 167.899 8.75C167.754 8.85026 167.599 8.94596 167.435 9.03711C167.061 9.24674 166.637 9.43359 166.163 9.59766L169.294 14.1504L173.341 14.2051ZM166.833 7.57422C166.833 7.41016 166.769 7.26888 166.642 7.15039C166.514 7.02279 166.345 6.91341 166.136 6.82227C165.935 6.73112 165.707 6.6582 165.452 6.60352C165.206 6.53971 164.965 6.49414 164.728 6.4668C164.491 6.43034 164.272 6.40755 164.071 6.39844C163.88 6.38021 163.729 6.37109 163.62 6.37109C163.41 6.37109 163.201 6.37565 162.991 6.38477C162.782 6.39388 162.572 6.40755 162.362 6.42578L162.444 8.95508C162.554 8.96419 162.659 8.96875 162.759 8.96875C162.868 8.96875 162.982 8.96875 163.101 8.96875C163.219 8.96875 163.392 8.96419 163.62 8.95508C163.857 8.93685 164.112 8.90951 164.386 8.87305C164.668 8.82747 164.951 8.77279 165.233 8.70898C165.525 8.64518 165.789 8.56315 166.026 8.46289C166.263 8.35352 166.455 8.22591 166.601 8.08008C166.756 7.93424 166.833 7.76562 166.833 7.57422Z" fill="#80DEEA"/>
<path d="M181.872 6.00195L178.837 7.27344L176.103 10.2812L176.431 13.6992L179.958 14.916L171.345 14.9707L174.052 13.7949L174.188 10.4453L170.743 6.52148L167.188 5.22266L174.804 4.85352L173.026 5.96094L175.679 9.14648L177.812 7.01367L175.747 5.76953L181.872 6.00195Z" fill="#80DEEA"/>
</svg>
